<svg width="31" height="31" viewBox="0 0 31 31" fill="none" xmlns="http://www.w3.org/2000/svg">
<path d="M21.3123 7.7513V22.6055C21.3123 25.4601 19.0003 27.7721 16.1457 27.7721C13.2911 27.7721 10.979 25.4601 10.979 22.6055V6.45964C10.979 5.60321 11.3192 4.78186 11.9248 4.17627C12.5304 3.57068 13.3517 3.23047 14.2082 3.23047C15.0646 3.23047 15.8859 3.57068 16.4915 4.17627C17.0971 4.78186 17.4373 5.60321 17.4373 6.45964V20.0221C17.4373 20.7326 16.8561 21.3138 16.1457 21.3138C15.4353 21.3138 14.854 20.7326 14.854 20.0221V7.7513H12.9165V20.0221C12.9165 20.8786 13.2567 21.6999 13.8623 22.3055C14.4679 22.9111 15.2892 23.2513 16.1457 23.2513C17.0021 23.2513 17.8235 22.9111 18.429 22.3055C19.0346 21.6999 19.3748 20.8786 19.3748 20.0221V6.45964C19.3748 3.60505 17.0628 1.29297 14.2082 1.29297C11.3536 1.29297 9.0415 3.60505 9.0415 6.45964V22.6055C9.0415 26.5321 12.219 29.7096 16.1457 29.7096C20.0723 29.7096 23.2498 26.5321 23.2498 22.6055V7.7513H21.3123Z" fill="#A6A6A6"/>
</svg>
