<svg width="83" height="83" viewBox="0 0 83 83" fill="none" xmlns="http://www.w3.org/2000/svg">
<g clip-path="url(#clip0_878_4572)">
<path fill-rule="evenodd" clip-rule="evenodd" d="M74.7 11.0667H66.4V0H60.8667V11.0667H22.1333V0H16.6V11.0667H8.3C6.0987 11.0667 3.98757 11.9411 2.43101 13.4977C0.874462 15.0542 0 17.1654 0 19.3667L0 74.7C0 76.9013 0.874462 79.0124 2.43101 80.569C3.98757 82.1255 6.0987 83 8.3 83H74.7C76.9013 83 79.0124 82.1255 80.569 80.569C82.1255 79.0124 83 76.9013 83 74.7V19.3667C83 17.1654 82.1255 15.0542 80.569 13.4977C79.0124 11.9411 76.9013 11.0667 74.7 11.0667ZM38.8661 62.1504L60.1805 37.7871L56.0195 34.1462L38.6005 54.0551L29.6255 45.0745L25.7079 48.9921L38.8661 62.1504Z" fill="#00C85C"/>
</g>
<defs>
<clipPath id="clip0_878_4572">
<rect width="83" height="83" fill="white"/>
</clipPath>
</defs>
</svg>
