<svg width="103" height="103" viewBox="0 0 103 103" fill="none" xmlns="http://www.w3.org/2000/svg">
<g clip-path="url(#clip0_984_4563)">
<path fill-rule="evenodd" clip-rule="evenodd" d="M0 51.5C0 37.8414 5.42588 24.7421 15.084 15.084C24.7421 5.42588 37.8414 0 51.5 0C65.1587 0 78.2579 5.42588 87.916 15.084C97.5741 24.7421 103 37.8414 103 51.5C103 65.1587 97.5741 78.2579 87.916 87.916C78.2579 97.5741 65.1587 103 51.5 103C37.8414 103 24.7421 97.5741 15.084 87.916C5.42588 78.2579 0 65.1587 0 51.5H0ZM48.5611 73.542L78.2113 36.4757L72.8553 32.1909L47.5723 63.7845L29.664 48.8632L25.2693 54.1368L48.5611 73.5489V73.542Z" fill="#00C85C"/>
</g>
<defs>
<clipPath id="clip0_984_4563">
<rect width="103" height="103" fill="white"/>
</clipPath>
</defs>
</svg>
