<svg width="26" height="30" viewBox="0 0 26 30" fill="none" xmlns="http://www.w3.org/2000/svg">
<path d="M22.75 5.625H3.25C2.81902 5.625 2.4057 5.82254 2.10095 6.17417C1.7962 6.52581 1.625 7.00272 1.625 7.5V22.5C1.625 22.9973 1.7962 23.4742 2.10095 23.8258C2.4057 24.1775 2.81902 24.375 3.25 24.375H22.75C23.181 24.375 23.5943 24.1775 23.899 23.8258C24.2038 23.4742 24.375 22.9973 24.375 22.5V7.5C24.375 7.00272 24.2038 6.52581 23.899 6.17417C23.5943 5.82254 23.181 5.625 22.75 5.625ZM20.9625 7.5L13 13.8562L5.0375 7.5H20.9625ZM3.25 22.5V8.35312L12.5369 15.7687C12.6729 15.8776 12.8345 15.936 13 15.936C13.1655 15.936 13.3271 15.8776 13.4631 15.7687L22.75 8.35312V22.5H3.25Z" fill="#787878"/>
</svg>
