<svg width="29" height="29" viewBox="0 0 29 29" fill="none" xmlns="http://www.w3.org/2000/svg">
<path fill-rule="evenodd" clip-rule="evenodd" d="M7.86625 7.24019C7.90069 6.81123 8.01246 6.40402 8.18706 6.03185H3.625V7.53079L6.04167 9.36142V25.3839H22.9583V9.38256L25.6771 7.55194V6.03125H14.7713C14.9465 6.40342 15.0576 6.81063 15.0927 7.23958H23.9776L21.75 8.74033V24.175H7.25V8.76148L5.24175 7.24019H7.86565H7.86625Z" fill="#787878"/>
<path fill-rule="evenodd" clip-rule="evenodd" d="M12.0835 15.7083H9.66683V18.125H12.0835V15.7083ZM8.4585 14.5V19.3333H13.2918V14.5H8.4585ZM19.3335 15.7083H15.7085V24.1667H19.3335V15.7083ZM14.5002 14.5V25.375H20.5418V14.5H14.5002Z" fill="#787878"/>
<path d="M3.625 24.7721C3.625 24.9324 3.68865 25.086 3.80196 25.1993C3.91526 25.3126 4.06893 25.3763 4.22917 25.3763H24.7708C24.9311 25.3763 25.0847 25.3126 25.198 25.1993C25.3113 25.086 25.375 24.9324 25.375 24.7721C25.375 24.6119 25.3113 24.4582 25.198 24.3449C25.0847 24.2316 24.9311 24.168 24.7708 24.168H4.22917C4.06893 24.168 3.91526 24.2316 3.80196 24.3449C3.68865 24.4582 3.625 24.6119 3.625 24.7721Z" fill="#787878"/>
<path fill-rule="evenodd" clip-rule="evenodd" d="M9.06234 9.66536H6.0415V8.45703H9.06234V9.66536ZM22.6561 9.66536H13.8957V8.45703H22.6561V9.66536Z" fill="#787878"/>
<path fill-rule="evenodd" clip-rule="evenodd" d="M15.104 7.25C15.104 7.72604 15.0102 8.19742 14.8281 8.63723C14.6459 9.07703 14.3789 9.47665 14.0423 9.81326C13.7057 10.1499 13.306 10.4169 12.8662 10.5991C12.4264 10.7812 11.955 10.875 11.479 10.875C11.003 10.875 10.5316 10.7812 10.0918 10.5991C9.65197 10.4169 9.25235 10.1499 8.91574 9.81326C8.57913 9.47665 8.31211 9.07703 8.12994 8.63723C7.94777 8.19742 7.854 7.72604 7.854 7.25C7.854 6.28859 8.23592 5.36656 8.91574 4.68674C9.59556 4.00692 10.5176 3.625 11.479 3.625C12.4404 3.625 13.3624 4.00692 14.0423 4.68674C14.7221 5.36656 15.104 6.28859 15.104 7.25ZM12.0832 5.4375V6.64583H13.2915V7.85417H12.0832V9.0625H10.8748V7.85417H9.6665V6.64583H10.8748V5.4375H12.0832Z" fill="#787878"/>
</svg>
