<svg width="129" height="129" viewBox="0 0 129 129" fill="none" xmlns="http://www.w3.org/2000/svg">
<path fill-rule="evenodd" clip-rule="evenodd" d="M44.7444 25.0636L44.8922 24.4186C45.1744 23.22 45.6367 21.457 46.5907 19.7209C47.5636 17.9525 49.0713 16.1599 51.4363 14.9801C53.7932 13.8057 56.7468 13.3676 60.3991 13.8514C64.4303 14.3889 72.5278 15.7219 79.6819 19.3607C86.8763 23.0211 93.6166 29.3179 93.6166 39.8045C93.6166 45.2225 91.5203 51.0356 89.4886 54.825C88.513 56.6471 87.3547 58.3886 86.1937 59.3265C85.9277 59.5415 85.5487 59.8103 85.0784 59.9984C83.7883 64.2381 81.2203 67.9759 77.7253 70.7007C74.2304 73.4255 69.9791 75.0044 65.5528 75.2214C61.1265 75.4385 56.7412 74.2831 52.9964 71.9133C49.2517 69.5435 46.3302 66.0749 44.6315 61.9818L44.567 61.9925L43.613 60.8342L45.6877 59.125L43.613 60.8342L43.6103 60.8289L43.6049 60.8235L43.5915 60.8047L43.5458 60.7509C43.3158 60.4647 43.0944 60.1716 42.882 59.8721C42.3016 59.0672 41.7547 58.2388 41.2426 57.3889C39.9795 55.298 38.4557 52.3202 37.4801 48.8453C36.5072 45.3704 36.0611 41.2961 37.0823 37.0929C38.0767 33.0025 40.4229 28.9766 44.6718 25.3807L44.7444 25.0636ZM49.2594 59.0282C50.425 62.3802 52.6633 65.2543 55.6276 67.2054C58.592 69.1565 62.1169 70.0758 65.6566 69.8208C69.1962 69.5658 72.5531 68.1509 75.2072 65.795C77.8613 63.4392 79.6645 60.274 80.3377 56.7895L80.6413 56.8917C80.6306 56.7396 80.6253 56.5872 80.6252 56.4348C80.6252 51.987 80.0071 48.8829 79.432 46.9479C79.3197 46.5713 79.1951 46.1984 79.0584 45.8299L78.9482 45.8353H78.8407C76.8311 45.8787 74.8221 45.7257 72.8422 45.3784C68.2278 44.599 61.9793 42.6533 54.621 38.1464C54.4597 38.5065 54.2985 38.9123 54.1372 39.3638C53.6105 40.8554 53.1778 42.6264 52.8042 44.4969C52.4737 46.1444 52.2022 47.8025 51.9442 49.3559L51.8448 49.9687C51.568 51.6349 51.2912 53.2716 50.9687 54.4568C50.4043 56.5154 49.8292 57.9774 49.2594 59.0255V59.0282ZM45.4969 54.0214C44.283 51.9378 43.3299 49.7129 42.6589 47.3967C41.8553 44.5319 41.5597 41.4305 42.3068 38.364C43.0325 35.3809 44.7874 32.2446 48.3967 29.2722C49.0471 28.8315 49.3427 28.2402 49.4233 28.0817V28.079C49.5645 27.7884 49.6778 27.4852 49.762 27.1733C49.848 26.8669 49.942 26.4477 50.0307 26.0714L50.1248 25.6495C50.3801 24.5664 50.7107 23.3866 51.3019 22.3089C51.877 21.2662 52.6645 20.3739 53.8362 19.7907C55.0133 19.2022 56.8355 18.799 59.6896 19.1807C63.5945 19.6994 70.9395 20.9437 77.2443 24.1525C83.5062 27.3372 88.2416 32.1586 88.2416 39.8045C88.2416 43.3252 87.0591 47.3295 85.6347 50.4874C85.366 48.4287 84.979 46.7464 84.5812 45.4134C84.304 44.4606 83.9582 43.5292 83.5465 42.6264C83.3913 42.2918 83.221 41.9645 83.0359 41.6455L82.9902 41.5729L82.9741 41.546L82.966 41.5326L82.9607 41.5245L80.7032 42.9758L82.9607 41.5245L81.9663 39.9819L80.1872 40.3394L80.1495 40.3474L79.8888 40.3824C79.4889 40.4269 79.0872 40.4538 78.6848 40.463C77.0278 40.495 75.3717 40.3654 73.7398 40.076C69.4049 39.345 63.0355 37.3535 55.2982 32.2016L53.417 30.9465L51.8609 32.5859C50.579 33.935 49.7082 35.776 49.0713 37.5685C48.4209 39.4095 47.9291 41.4654 47.534 43.438C47.2065 45.1168 46.909 46.8012 46.6418 48.4905L46.5396 49.0925C46.2521 50.8421 46.0183 52.1778 45.7818 53.0432C45.6935 53.3712 45.5986 53.6973 45.4969 54.0214ZM82.8021 55.1555L82.8128 55.1502L82.8021 55.1555ZM82.8128 55.1502L82.8021 55.1555L82.8102 55.1502H82.8128Z" fill="black"/>
<path fill-rule="evenodd" clip-rule="evenodd" d="M48.1439 77.5478C47.5741 76.4137 46.8727 75.0135 45.6875 75.2849C31.1643 78.5905 16.125 88.1338 16.125 98.2818V112.875H112.875V98.2818C112.875 90.2892 103.544 82.6702 92.4849 78.1793L92.4715 78.1525C92.4592 78.1282 92.4467 78.104 92.4339 78.0799L92.3452 78.1229C89.4078 76.9404 86.3494 75.9729 83.3125 75.2849C81.9607 74.9758 80.5632 76.8356 79.9531 77.9993H48.375C48.2998 77.8595 48.2245 77.7037 48.1439 77.5478ZM84.3956 81.0953C85.57 81.4205 86.7391 81.786 87.892 82.1891C87.9242 83.1082 87.8544 84.194 87.7039 85.3012C87.5506 86.4476 87.3062 87.58 86.9729 88.6875H83.3125C82.8135 88.6877 82.3245 88.8269 81.9001 89.0894C81.4758 89.3519 81.1329 89.7273 80.9099 90.1737L78.2224 95.5487C78.0355 95.9216 77.9379 96.3328 77.9375 96.75V102.125C77.9375 102.838 78.2206 103.521 78.7246 104.025C79.2287 104.529 79.9122 104.812 80.625 104.812H86V99.4375H83.3125V97.3842L84.9734 94.0625H92.4016L94.0625 97.3842V99.4375H91.375V104.812H96.75C97.4628 104.812 98.1463 104.529 98.6504 104.025C99.1544 103.521 99.4375 102.838 99.4375 102.125V96.75C99.4371 96.3328 99.3395 95.9216 99.1526 95.5487L96.4651 90.1737C96.2421 89.7273 95.8992 89.3519 95.4748 89.0894C95.0505 88.8269 94.5615 88.6877 94.0625 88.6875H92.5414C92.8734 87.2652 93.0963 85.8196 93.2079 84.3633C95.8282 85.6022 98.2631 87.0239 100.373 88.5612C105.538 92.329 107.5 95.855 107.5 98.2818V107.5H21.5V98.2818C21.5 95.855 23.4619 92.329 28.6273 88.5612C31.2234 86.6665 34.3221 84.9518 37.6438 83.5328C37.7361 85.6745 38.0797 87.7978 38.6677 89.8592L38.6892 89.9345C37.0826 90.9509 35.8868 92.5024 35.313 94.315C34.7393 96.1276 34.8246 98.0846 35.5538 99.8404C36.283 101.596 37.6092 103.038 39.2983 103.911C40.9873 104.783 42.9304 105.031 44.7844 104.61C46.6385 104.19 48.2841 103.127 49.4308 101.611C50.5774 100.094 51.1513 98.2212 51.051 96.3226C50.9506 94.4241 50.1826 92.622 48.8826 91.2348C47.5825 89.8476 45.8341 88.9644 43.946 88.7412C43.6026 87.6168 43.3509 86.4663 43.1935 85.3012C43.0439 84.2592 42.9818 83.2065 43.0081 82.1542C43.0159 81.9532 43.0293 81.7524 43.0484 81.5522C43.3709 81.4527 43.6934 81.356 44.0159 81.2646L45.1312 83.377H83.1969L84.3956 81.098V81.0953ZM43 99.4805C44.4459 99.4805 45.6875 98.298 45.6875 96.7527C45.6875 95.21 44.4459 94.0248 43 94.0248C41.5541 94.0248 40.3125 95.2073 40.3125 96.7527C40.3125 98.2953 41.5541 99.4805 43 99.4805Z" fill="black"/>
</svg>
