<svg width="35" height="29" viewBox="0 0 35 29" fill="none" xmlns="http://www.w3.org/2000/svg">
<g clip-path="url(#clip0_1022_2513)">
<path d="M6.35088 28.0604V26.2039C6.35088 25.4921 5.9348 25.028 5.22164 25.028C4.86512 25.028 4.47883 25.1518 4.21137 25.5541C4.00347 25.2137 3.70638 25.028 3.26066 25.028C2.96343 25.028 2.66647 25.1208 2.42866 25.4612V25.0899H1.80469V28.0604H2.42866V26.4204C2.42866 25.8945 2.69611 25.6468 3.11218 25.6468C3.52798 25.6468 3.73615 25.9253 3.73615 26.4204V28.0604H4.36013V26.4204C4.36013 25.8945 4.65709 25.6468 5.04338 25.6468C5.45945 25.6468 5.66735 25.9253 5.66735 26.4204V28.0604H6.35088ZM15.5915 25.0899H14.5813V24.1926H13.9574V25.0899H13.3928V25.6777H13.9572V27.0393C13.9572 27.7201 14.2247 28.1223 14.9378 28.1223C15.2053 28.1223 15.5023 28.0295 15.7104 27.9058L15.532 27.3487C15.3538 27.4725 15.1459 27.5035 14.9973 27.5035C14.7002 27.5035 14.5813 27.3178 14.5813 27.0083V25.6777H15.5915V25.0899ZM20.8805 25.0279C20.5239 25.0279 20.2863 25.2137 20.1377 25.4612V25.0899H19.5137V28.0604H20.1377V26.3895C20.1377 25.8945 20.3456 25.616 20.7318 25.616C20.8507 25.616 20.9993 25.647 21.1181 25.6778L21.2964 25.059C21.1776 25.028 20.9993 25.028 20.8805 25.028V25.0279ZM12.8877 25.3374C12.5904 25.1208 12.1745 25.028 11.7288 25.028C11.0158 25.028 10.5404 25.3993 10.5404 25.9872C10.5404 26.4824 10.8969 26.7608 11.5209 26.8537L11.818 26.8847C12.1449 26.9464 12.3231 27.0393 12.3231 27.1941C12.3231 27.4106 12.0855 27.5654 11.6694 27.5654C11.2534 27.5654 10.9266 27.4106 10.7185 27.256L10.4214 27.751C10.7483 27.9985 11.194 28.1223 11.6396 28.1223C12.4716 28.1223 12.9471 27.7201 12.9471 27.1631C12.9471 26.637 12.5608 26.3585 11.9665 26.2658L11.6694 26.2347C11.4019 26.2037 11.194 26.142 11.194 25.9564C11.194 25.7397 11.4019 25.616 11.7288 25.616C12.0855 25.616 12.442 25.7706 12.6202 25.8635L12.8877 25.3374ZM29.4676 25.028C29.1109 25.028 28.8732 25.2137 28.7246 25.4612V25.0899H28.1007V28.0604H28.7246V26.3895C28.7246 25.8945 28.9327 25.616 29.3188 25.616C29.4378 25.616 29.5864 25.647 29.7052 25.6778L29.8835 25.059C29.7647 25.028 29.5864 25.028 29.4676 25.028ZM21.5044 26.5751C21.5044 27.4725 22.0986 28.1223 23.0198 28.1223C23.4358 28.1223 23.7329 28.0295 24.03 27.782L23.7329 27.256C23.4952 27.4416 23.2575 27.5343 22.9901 27.5343C22.4849 27.5343 22.1284 27.1631 22.1284 26.5751C22.1284 26.0182 22.4849 25.6468 22.9901 25.616C23.2575 25.616 23.4952 25.7087 23.7329 25.8945L24.03 25.3684C23.7329 25.1208 23.4358 25.028 23.0198 25.028C22.0986 25.028 21.5044 25.6778 21.5044 26.5751ZM27.2688 26.5751V25.0899H26.6448V25.4612C26.4368 25.1828 26.1397 25.028 25.7534 25.028C24.9512 25.028 24.3272 25.6778 24.3272 26.5751C24.3272 27.4725 24.9512 28.1223 25.7534 28.1223C26.1693 28.1223 26.4666 27.9676 26.6448 27.6891V28.0604H27.2688V26.5751ZM24.9808 26.5751C24.9808 26.0491 25.3077 25.616 25.8424 25.616C26.3476 25.616 26.7042 26.0182 26.7042 26.5751C26.7042 27.1012 26.3476 27.5343 25.8424 27.5343C25.3077 27.5033 24.9808 27.1012 24.9808 26.5751ZM17.5229 25.028C16.6909 25.028 16.0966 25.6468 16.0966 26.5751C16.0966 27.5035 16.6908 28.1223 17.5526 28.1223C17.9685 28.1223 18.3846 27.9985 18.7115 27.7201L18.4142 27.256C18.1765 27.4416 17.8794 27.5654 17.5824 27.5654C17.1961 27.5654 16.8098 27.3797 16.7206 26.8535H18.8303V26.6062C18.8601 25.6468 18.3252 25.028 17.5228 25.028H17.5229ZM17.5229 25.5849C17.9091 25.5849 18.1767 25.8326 18.236 26.2968H16.7503C16.8098 25.8945 17.0772 25.5849 17.5229 25.5849ZM33.0034 26.5751V23.9141H32.3794V25.4612C32.1714 25.1828 31.8743 25.028 31.488 25.028C30.6857 25.028 30.0618 25.6778 30.0618 26.5751C30.0618 27.4725 30.6857 28.1223 31.488 28.1223C31.904 28.1223 32.2011 27.9676 32.3794 27.6891V28.0604H33.0034V26.5751ZM30.7155 26.5751C30.7155 26.0491 31.0423 25.616 31.5772 25.616C32.0823 25.616 32.4388 26.0182 32.4388 26.5751C32.4388 27.1012 32.0823 27.5343 31.5772 27.5343C31.0423 27.5033 30.7155 27.1012 30.7155 26.5751ZM9.85689 26.5751V25.0899H9.23292V25.4612C9.02488 25.1828 8.72779 25.028 8.34149 25.028C7.53926 25.028 6.91529 25.6778 6.91529 26.5751C6.91529 27.4725 7.53926 28.1223 8.34149 28.1223C8.75756 28.1223 9.05466 27.9676 9.23292 27.6891V28.0604H9.85689V26.5751ZM7.53926 26.5751C7.53926 26.0491 7.86614 25.616 8.40091 25.616C8.90604 25.616 9.26269 26.0182 9.26269 26.5751C9.26269 27.1012 8.90604 27.5343 8.40091 27.5343C7.86614 27.5033 7.53926 27.1012 7.53926 26.5751Z" fill="black"/>
<path d="M12.6758 2.5332H22.0353V20.047H12.6758V2.5332Z" fill="#FF5F00"/>
<path d="M13.2731 11.2899C13.2731 7.7315 14.8776 4.57524 17.3437 2.53295C15.5313 1.04771 13.2435 0.150391 10.7476 0.150391C4.83451 0.150391 0.0507812 5.13215 0.0507812 11.2899C0.0507812 17.4475 4.83451 22.4294 10.7475 22.4294C13.2434 22.4294 15.5312 21.5321 17.3437 20.0467C14.8776 18.0354 13.2731 14.8483 13.2731 11.2899Z" fill="#EB001B"/>
<path d="M34.6679 11.2899C34.6679 17.4475 29.8842 22.4294 23.9712 22.4294C21.4753 22.4294 19.1875 21.5321 17.375 20.0467C19.8709 18.0046 21.4457 14.8483 21.4457 11.2899C21.4457 7.7315 19.8411 4.57524 17.375 2.53295C19.1874 1.04771 21.4753 0.150391 23.9712 0.150391C29.8842 0.150391 34.6681 5.16317 34.6681 11.2899H34.6679Z" fill="#F79E1B"/>
</g>
<defs>
<clipPath id="clip0_1022_2513">
<rect width="34.65" height="28.05" fill="white" transform="translate(0.0507812 0.150391)"/>
</clipPath>
</defs>
</svg>
