<svg width="24" height="24" viewBox="0 0 24 24" fill="none" xmlns="http://www.w3.org/2000/svg">
<path d="M16.57 21.9982C16.8356 21.9997 17.0989 21.9483 17.3444 21.847C17.5899 21.7457 17.8128 21.5966 18 21.4082L20.71 18.6982C20.8963 18.5108 21.0008 18.2574 21.0008 17.9932C21.0008 17.729 20.8963 17.4756 20.71 17.2882L16.71 13.2882C16.5227 13.1019 16.2692 12.9974 16.005 12.9974C15.7408 12.9974 15.4874 13.1019 15.3 13.2882L13.7 14.8782C12.5923 14.5828 11.5663 14.0391 10.7 13.2882C9.95115 12.4205 9.40766 11.395 9.11003 10.2882L10.7 8.68819C10.8863 8.50083 10.9908 8.24737 10.9908 7.98319C10.9908 7.719 10.8863 7.46555 10.7 7.27819L6.70003 3.27819C6.51267 3.09194 6.25922 2.9874 5.99503 2.9874C5.73085 2.9874 5.4774 3.09194 5.29003 3.27819L2.59003 5.99819C2.40167 6.18543 2.25248 6.40832 2.15118 6.65384C2.04988 6.89936 1.9985 7.1626 2.00003 7.42819C2.09076 11.2705 3.62611 14.9375 6.30003 17.6982C9.06075 20.3721 12.7277 21.9075 16.57 21.9982ZM6.00003 5.40819L8.59003 7.99819L7.30003 9.28819C7.17785 9.40264 7.08636 9.54593 7.03395 9.70492C6.98153 9.86391 6.96987 10.0335 7.00003 10.1982C7.3738 11.8686 8.16514 13.4168 9.30003 14.6982C10.5804 15.8345 12.1291 16.6261 13.8 16.9982C13.9622 17.0321 14.1303 17.0252 14.2891 16.978C14.4479 16.9309 14.5926 16.8451 14.71 16.7282L16 15.4082L18.59 17.9982L16.59 19.9982C13.2738 19.9128 10.1095 18.5893 7.72003 16.2882C5.41295 13.8977 4.08564 10.7293 4.00003 7.40819L6.00003 5.40819ZM20 10.9982H22C22.026 9.80919 21.8109 8.62725 21.3678 7.52359C20.9247 6.41994 20.2627 5.41743 19.4217 4.57648C18.5808 3.73553 17.5783 3.07355 16.4746 2.63044C15.371 2.18733 14.189 1.97226 13 1.99819V3.99819C13.9279 3.96609 14.8525 4.1252 15.7163 4.46562C16.5801 4.80605 17.3647 5.32051 18.0212 5.97703C18.6777 6.63355 19.1922 7.41809 19.5326 8.28189C19.873 9.14569 20.0321 10.0703 20 10.9982Z" fill="white"/>
<path d="M13 8C15.1 8 16 8.9 16 11H18C18 7.78 16.22 6 13 6V8Z" fill="white"/>
</svg>
