<svg width="58" height="57" viewBox="0 0 58 57" fill="none" xmlns="http://www.w3.org/2000/svg">
<path d="M46.9247 15.8626C49.4139 18.4609 50.7503 21.375 50.7503 26.0989C50.7503 34.4114 44.8125 41.8617 36.1778 45.5454L34.0197 42.2726C42.0793 37.9881 43.655 32.4283 44.2833 28.9228C42.9855 29.583 41.2866 29.8134 39.6215 29.6614C35.2619 29.2648 31.8254 25.7474 31.8254 21.375C31.8254 19.1704 32.7165 17.0561 34.3028 15.4972C35.889 13.9383 38.0404 13.0625 40.2837 13.0625C42.8768 13.0625 45.3563 14.2262 46.9247 15.8626ZM22.758 15.8626C25.2472 18.4609 26.5836 21.375 26.5836 26.0989C26.5836 34.4114 20.6459 41.8617 12.0111 45.5454L9.85305 42.2726C17.9126 37.9881 19.4883 32.4283 20.1166 28.9228C18.8189 29.583 17.12 29.8134 15.4549 29.6614C11.0952 29.2648 7.66113 25.7474 7.66113 21.375C7.66113 19.1704 8.55228 17.0561 10.1385 15.4972C11.7248 13.9383 13.8762 13.0625 16.1195 13.0625C18.7125 13.0625 21.192 14.2262 22.7605 15.8626H22.758Z" fill="black"/>
</svg>
