<svg width="40" height="40" viewBox="0 0 40 40" fill="none" xmlns="http://www.w3.org/2000/svg">
<path d="M16.6668 29.9987C19.6251 29.9981 22.4982 29.0078 24.8285 27.1854L32.1552 34.512L34.5118 32.1554L27.1852 24.8287C29.0085 22.4981 29.9995 19.6244 30.0002 16.6654C30.0002 9.3137 24.0185 3.33203 16.6668 3.33203C9.31516 3.33203 3.3335 9.3137 3.3335 16.6654C3.3335 24.017 9.31516 29.9987 16.6668 29.9987ZM16.6668 6.66537C22.1818 6.66537 26.6668 11.1504 26.6668 16.6654C26.6668 22.1804 22.1818 26.6654 16.6668 26.6654C11.1518 26.6654 6.66683 22.1804 6.66683 16.6654C6.66683 11.1504 11.1518 6.66537 16.6668 6.66537Z" fill="#D9D9D9"/>
</svg>
