<svg width="28" height="28" viewBox="0 0 28 28" fill="none" xmlns="http://www.w3.org/2000/svg">
<path d="M24.2461 3.75483C24.128 3.63729 23.9788 3.55592 23.8161 3.52027C23.6533 3.48461 23.4838 3.49617 23.3274 3.55358L4.07738 10.5536C3.91136 10.6166 3.76843 10.7285 3.66757 10.8747C3.56671 11.0208 3.5127 11.1941 3.5127 11.3717C3.5127 11.5493 3.56671 11.7226 3.66757 11.8687C3.76843 12.0149 3.91136 12.1269 4.07738 12.1898L12.4774 15.5498L15.8374 23.9498C15.9005 24.1086 16.0087 24.2453 16.1487 24.3433C16.2886 24.4412 16.4541 24.4961 16.6249 24.5011C16.8017 24.4975 16.9733 24.4403 17.117 24.3372C17.2607 24.2341 17.3698 24.0899 17.4299 23.9236L24.4299 4.67358C24.4895 4.51877 24.5039 4.35021 24.4713 4.18754C24.4388 4.02487 24.3607 3.8748 24.2461 3.75483ZM16.6249 21.1761L14.1836 15.0511L18.3749 10.8598L17.1411 9.62608L12.9149 13.8523L6.82488 11.3761L22.1636 5.83733L16.6249 21.1761Z" fill="white"/>
</svg>
