<svg width="24" height="23" viewBox="0 0 24 23" fill="none" xmlns="http://www.w3.org/2000/svg">
<path d="M1.9375 5.02571V17.9738C1.93718 18.1736 1.99244 18.3696 2.09711 18.5398C2.20177 18.71 2.3517 18.8477 2.53015 18.9376C2.7086 19.0275 2.90853 19.0659 3.10758 19.0487C3.30664 19.0315 3.49699 18.9592 3.65734 18.84L11.6406 12.9266V17.9738C11.6403 18.1736 11.6956 18.3696 11.8002 18.5398C11.9049 18.71 12.0548 18.8477 12.2333 18.9376C12.4117 19.0275 12.6117 19.0659 12.8107 19.0487C13.0098 19.0315 13.2001 18.9592 13.3605 18.84L22.1005 12.3659C22.2358 12.2656 22.3458 12.135 22.4216 11.9846C22.4974 11.8341 22.5368 11.668 22.5368 11.4996C22.5368 11.3311 22.4974 11.165 22.4216 11.0146C22.3458 10.8641 22.2358 10.7335 22.1005 10.6333L13.3605 4.15953C13.2 4.04069 13.0097 3.96874 12.8108 3.95169C12.6119 3.93464 12.4121 3.97317 12.2338 4.06298C12.0555 4.15279 11.9056 4.29035 11.8009 4.46034C11.6961 4.63032 11.6407 4.82605 11.6406 5.02571V10.0729L3.65734 4.15953C3.4969 4.04069 3.30661 3.96874 3.10768 3.95169C2.90875 3.93464 2.70899 3.97317 2.53067 4.06298C2.35235 4.15279 2.20247 4.29035 2.09774 4.46034C1.99301 4.63032 1.93753 4.82605 1.9375 5.02571ZM13.0781 5.73912L20.855 11.4998L13.0781 17.2604V5.73912ZM3.375 5.73912L11.1518 11.4998L3.375 17.2604V5.73912Z" fill="#DF00A1"/>
</svg>
