<svg width="126" height="126" viewBox="0 0 126 126" fill="none" xmlns="http://www.w3.org/2000/svg">
<path d="M42 26.25H31.5C28.7152 26.25 26.0445 27.3562 24.0754 29.3254C22.1062 31.2945 21 33.9652 21 36.75V99.75C21 102.535 22.1062 105.205 24.0754 107.175C26.0445 109.144 28.7152 110.25 31.5 110.25H61.4092M94.5 73.5V94.5H115.5M94.5 57.75V36.75C94.5 33.9652 93.3938 31.2945 91.4246 29.3254C89.4555 27.3562 86.7848 26.25 84 26.25H73.5" stroke="black" stroke-width="5" stroke-linecap="round" stroke-linejoin="round"/>
<path d="M63 15.75H52.5C46.701 15.75 42 20.451 42 26.25C42 32.049 46.701 36.75 52.5 36.75H63C68.799 36.75 73.5 32.049 73.5 26.25C73.5 20.451 68.799 15.75 63 15.75Z" stroke="black" stroke-width="5" stroke-linecap="round" stroke-linejoin="round"/>
<path d="M94.5 115.5C106.098 115.5 115.5 106.098 115.5 94.5C115.5 82.902 106.098 73.5 94.5 73.5C82.902 73.5 73.5 82.902 73.5 94.5C73.5 106.098 82.902 115.5 94.5 115.5Z" stroke="black" stroke-width="5" stroke-linecap="round" stroke-linejoin="round"/>
<path d="M42 57.75H63M42 78.75H57.75" stroke="black" stroke-width="5" stroke-linecap="round" stroke-linejoin="round"/>
</svg>
