<svg width="143" height="143" viewBox="0 0 143 143" fill="none" xmlns="http://www.w3.org/2000/svg">
<path d="M47.6667 113.208C50.8272 113.208 53.8582 111.953 56.093 109.718C58.3278 107.483 59.5833 104.452 59.5833 101.292C59.5833 98.1312 58.3278 95.1001 56.093 92.8653C53.8582 90.6305 50.8272 89.375 47.6667 89.375C44.5062 89.375 41.4751 90.6305 39.2403 92.8653C37.0055 95.1001 35.75 98.1312 35.75 101.292C35.75 104.452 37.0055 107.483 39.2403 109.718C41.4751 111.953 44.5062 113.208 47.6667 113.208V113.208ZM107.25 113.208C110.41 113.208 113.442 111.953 115.676 109.718C117.911 107.483 119.167 104.452 119.167 101.292C119.167 98.1312 117.911 95.1001 115.676 92.8653C113.442 90.6305 110.41 89.375 107.25 89.375C104.09 89.375 101.058 90.6305 98.8236 92.8653C96.5888 95.1001 95.3333 98.1312 95.3333 101.292C95.3333 104.452 96.5888 107.483 98.8236 109.718C101.058 111.953 104.09 113.208 107.25 113.208V113.208Z" stroke="black" stroke-width="5" stroke-miterlimit="1.5" stroke-linecap="round" stroke-linejoin="round"/>
<path d="M59.8809 101.292H89.3747V39.325C89.3747 38.3769 88.998 37.4675 88.3276 36.7971C87.6571 36.1267 86.7478 35.75 85.7997 35.75H5.95801M33.6643 101.292H21.4497C20.9802 101.292 20.5153 101.199 20.0816 101.02C19.6478 100.84 19.2537 100.577 18.9218 100.245C18.5898 99.9126 18.3265 99.5185 18.1468 99.0848C17.9671 98.651 17.8747 98.1861 17.8747 97.7167V68.5208" stroke="black" stroke-width="5" stroke-linecap="round"/>
<path d="M11.916 53.625H35.7493" stroke="black" stroke-width="5" stroke-linecap="round" stroke-linejoin="round"/>
<path d="M89.375 53.625H122.801C123.492 53.6252 124.168 53.8256 124.748 54.2021C125.327 54.5785 125.785 55.1149 126.066 55.7462L136.732 79.7463C136.935 80.202 137.041 80.6952 137.042 81.1942V97.7167C137.042 98.1861 136.949 98.651 136.77 99.0848C136.59 99.5185 136.327 99.9126 135.995 100.245C135.663 100.577 135.268 100.84 134.835 101.02C134.401 101.199 133.936 101.292 133.467 101.292H122.146M89.375 101.292H95.3333" stroke="black" stroke-width="5" stroke-linecap="round"/>
</svg>
