<svg width="26" height="30" viewBox="0 0 26 30" fill="none" xmlns="http://www.w3.org/2000/svg">
<g clip-path="url(#clip0_984_4142)">
<path d="M20.3175 6.60746L21.3063 1.63496C21.3598 1.36861 21.3328 1.09235 21.2286 0.841419C21.1245 0.59049 20.948 0.376262 20.7216 0.226059C20.4952 0.075856 20.2293 -0.00351466 19.9576 -0.00192985C19.6859 -0.000345033 19.4209 0.0821235 19.1963 0.234957L19.2013 0.232457L12.5025 4.70871C12.4716 4.72897 12.442 4.75109 12.4138 4.77496L12.395 4.78871C12.3608 4.81704 12.3283 4.84662 12.2975 4.87746L12.2638 4.90871L12.2013 4.97746L12.1788 5.00746C12.16 5.03371 12.1388 5.05746 12.1213 5.08496L12.1088 5.10496C12.0885 5.13574 12.0698 5.16744 12.0525 5.19996L12.0475 5.21121C12.0289 5.2463 12.0118 5.28216 11.9963 5.31871V5.32371C11.9799 5.36289 11.9657 5.40295 11.9538 5.44371V5.45496C11.9424 5.49419 11.9324 5.5338 11.9238 5.57371C11.9238 5.58621 11.9238 5.59871 11.9188 5.61121C11.9188 5.64246 11.9075 5.67371 11.905 5.70496L11.8988 5.82496V5.83996C11.8988 5.88496 11.8988 5.93121 11.905 5.97621C11.905 6.00371 11.9125 6.03121 11.9163 6.05871C11.92 6.08621 11.9163 6.09246 11.9238 6.10871C11.9332 6.1532 11.9441 6.19738 11.9563 6.24121C11.9675 6.27746 11.9813 6.31371 11.9938 6.34871L12 6.36746L12.05 6.47496L12.0588 6.49246C12.0775 6.52746 12.0988 6.56121 12.12 6.59496L12.1275 6.60746V6.61246L16.5988 13.305C16.7485 13.5295 16.9613 13.7048 17.2104 13.8087C17.4595 13.9125 17.7338 13.9404 17.9987 13.8886C18.2636 13.8369 18.5073 13.708 18.699 13.518C18.8908 13.3281 19.022 13.0856 19.0763 12.8212L19.0775 12.8125L19.7213 9.57996C21.2637 10.8817 22.3772 12.6189 22.916 14.564C23.4547 16.5092 23.3937 18.5717 22.7407 20.4815C22.0878 22.3914 20.8734 24.0596 19.2566 25.2678C17.6398 26.476 15.6959 27.1679 13.6793 27.2529C11.6627 27.3379 9.66743 26.8121 7.95466 25.7443C6.2419 24.6764 4.89144 23.1163 4.08008 21.2682C3.26871 19.4201 3.03425 17.3701 3.40737 15.3865C3.7805 13.4029 4.74383 11.5782 6.17126 10.1512C6.40816 9.89119 6.53575 9.54988 6.52751 9.19822C6.51927 8.84656 6.37585 8.5116 6.12704 8.26296C5.87823 8.01431 5.54318 7.8711 5.19152 7.86309C4.83985 7.85508 4.49863 7.98289 4.23876 8.21996L4.24001 8.21871C3.05252 9.40278 2.11079 10.8099 1.46895 12.3592C0.827108 13.9084 0.497818 15.5693 0.500011 17.2462C0.500011 24.2962 6.21501 30.0112 13.265 30.0112C20.315 30.0112 26.03 24.2962 26.03 17.2462C26.03 12.825 23.7825 8.92871 20.3675 6.63746L20.3213 6.60871L20.3175 6.60746Z" fill="#787878"/>
</g>
<defs>
<clipPath id="clip0_984_4142">
<rect width="25" height="30" fill="white" transform="translate(0.5)"/>
</clipPath>
</defs>
</svg>
