<svg width="26" height="26" viewBox="0 0 26 26" fill="none" xmlns="http://www.w3.org/2000/svg">
<g clip-path="url(#clip0_123_786)">
<path d="M24.5554 7.46648C24.5576 7.18239 24.4803 6.90337 24.3322 6.66089C24.1842 6.41842 23.9713 6.22215 23.7177 6.09425C23.4772 5.96513 23.2051 5.90677 22.9328 5.92595C22.6606 5.94512 22.3993 6.04104 22.1793 6.20259L18.7777 8.37648V5.77648C18.7777 5.39339 18.6255 5.02599 18.3546 4.7551C18.0837 4.48421 17.7163 4.33203 17.3332 4.33203H4.33323C3.56704 4.33203 2.83224 4.6364 2.29047 5.17817C1.7487 5.71994 1.44434 6.45474 1.44434 7.22092V18.7765C1.44434 19.5427 1.7487 20.2775 2.29047 20.8192C2.83224 21.361 3.56704 21.6654 4.33323 21.6654H17.3332C17.7163 21.6654 18.0837 21.5132 18.3546 21.2423C18.6255 20.9714 18.7777 20.604 18.7777 20.2209V17.6209L22.1288 19.7876C22.353 19.9592 22.6212 20.0639 22.9023 20.0895C23.1835 20.115 23.4662 20.0605 23.7177 19.932C23.9758 19.802 24.1917 19.6012 24.34 19.3531C24.4883 19.105 24.5631 18.8199 24.5554 18.5309V7.46648ZM23.0604 18.6104C23.0171 18.6104 22.981 18.6104 22.9232 18.567L17.3332 14.9993V20.2209H4.33323C3.95013 20.2209 3.58273 20.0687 3.31185 19.7979C3.04096 19.527 2.88878 19.1596 2.88878 18.7765V7.22092C2.88878 6.83783 3.04096 6.47043 3.31185 6.19954C3.58273 5.92866 3.95013 5.77648 4.33323 5.77648H17.3332V10.9981L22.9666 7.38703C22.9802 7.37706 22.9966 7.37168 23.0135 7.37168C23.0304 7.37168 23.0468 7.37706 23.0604 7.38703C23.0762 7.39315 23.0897 7.40416 23.0988 7.41846C23.1079 7.43275 23.1121 7.44957 23.111 7.46648V18.5309C23.1121 18.5478 23.1079 18.5646 23.0988 18.5789C23.0897 18.5932 23.0762 18.6042 23.0604 18.6104Z" fill="white"/>
</g>
<defs>
<clipPath id="clip0_123_786">
<rect width="26" height="26" fill="white"/>
</clipPath>
</defs>
</svg>
